<svg id="Menu" xmlns="http://www.w3.org/2000/svg" width="25.349" height="25.358" viewBox="0 0 25.349 25.358">
  <path id="Shape" d="M12.659,25.358A12.679,12.679,0,0,1,11.413.063,8.588,8.588,0,0,1,12.682,0h.03a12.679,12.679,0,0,1,1.215,25.3A8.586,8.586,0,0,1,12.659,25.358ZM12.578,1.723c-.309,0-.64.018-.985.052a10.95,10.95,0,0,0,1.065,21.849h.094c.315,0,.654-.017,1.008-.052A10.95,10.95,0,0,0,12.7,1.724h-.119Z" transform="translate(0 0)" fill="#dbae58"/>
  <path id="Shape-2" data-name="Shape" d="M11.815,0H.865a.865.865,0,0,0,0,1.729h10.95a.865.865,0,1,0,0-1.729Z" transform="translate(6.331 12.103)" fill="#dbae58"/>
  <path id="Shape-3" data-name="Shape" d="M11.815,0H.865a.865.865,0,0,0,0,1.729h10.95a.865.865,0,1,0,0-1.729Z" transform="translate(6.331 8.645)" fill="#dbae58"/>
  <path id="Shape-4" data-name="Shape" d="M11.815,0H.865a.865.865,0,0,0,0,1.729h10.95a.865.865,0,1,0,0-1.729Z" transform="translate(6.331 15.561)" fill="#dbae58"/>
</svg>
