<svg xmlns="http://www.w3.org/2000/svg" width="124.449" height="118.184" viewBox="0 0 124.449 118.184">
  <g id="fireworks" transform="translate(0 -7.727)">
    <path id="Path_85" data-name="Path 85" d="M180.567,122.528a9.009,9.009,0,0,1-1.557-6.805l.836-4.872-3.539-3.45c-.054-.052-.1-.108-.155-.162-27.085,22.594-30.165,58.812-29.87,76.592a1.271,1.271,0,0,0,2.516.234C156.269,147.678,170.4,130.481,180.567,122.528Z" transform="translate(-86.968 -59.169)"/>
    <path id="Path_86" data-name="Path 86" d="M83.018,84.918l-8.173,1.83-3.126,7.77c-.057.141-.121.278-.184.415,12.756,18.047,19.4,54.892,22.056,73.451a.841.841,0,0,0,1.673-.113c.323-40.032-5.8-66.742-11.982-83.421C83.193,84.872,83.107,84.9,83.018,84.918Z" transform="translate(-42.534 -45.857)"/>
    <path id="Path_87" data-name="Path 87" d="M194.459,236.312l-1.158-1.593a9.06,9.06,0,0,1-1.676-4.265c-8.916,2.378-22.327,8.462-26.612,23.851a1.766,1.766,0,0,0,3.156,1.477c4.676-6.781,13.081-15.736,25.616-17.554.007-.019.012-.039.019-.059Z" transform="translate(-98.077 -132.433)"/>
    <path id="Path_88" data-name="Path 88" d="M72.3,206.57a9.078,9.078,0,0,1-3.2,2.777l-1.747.909-.242,1.954a9.188,9.188,0,0,1-.382,1.707c7.486,8.455,13,20.07,16.336,28.41a1.178,1.178,0,0,0,2.255-.635C82.365,224.262,77.2,213.346,72.3,206.57Z" transform="translate(-39.675 -118.231)"/>
    <path id="Path_89" data-name="Path 89" d="M240.494,82.5l-1.556,9.073a.962.962,0,0,0,1.4,1.014l8.149-4.284,8.148,4.284a.962.962,0,0,0,1.4-1.014L256.47,82.5l6.592-6.426a.962.962,0,0,0-.533-1.641l-9.11-1.324-4.074-8.255a.962.962,0,0,0-1.725,0l-4.074,8.255-9.11,1.324a.962.962,0,0,0-.534,1.641Z" transform="translate(-138.904 -33.648)" fill="#dbae58"/>
    <path id="Path_90" data-name="Path 90" d="M38.713,31.149a.962.962,0,0,0,.407-1.677l-9.693-8.11L30.613,8.779a.962.962,0,0,0-1.468-.906L18.436,14.586,6.836,9.571a.962.962,0,0,0-1.315,1.117L8.6,22.946.241,32.429a.962.962,0,0,0,.656,1.6l12.609.864,6.437,10.877a.963.963,0,0,0,.828.472c.024,0,.049,0,.073,0a.962.962,0,0,0,.82-.6L26.381,33.91Z" transform="translate(0 0)" fill="#dbae58"/>
    <path id="Path_91" data-name="Path 91" d="M271.546,221.78a.962.962,0,0,0-.655-.776l-5.927-1.924-1.775-5.973a.962.962,0,0,0-1.7-.291l-3.661,5.043L251.6,217.7h-.024a.962.962,0,0,0-.778,1.528l3.664,5.04-2.075,5.876a.962.962,0,0,0,1.2,1.235l5.926-1.928,4.948,3.789a.962.962,0,0,0,1.547-.764l0-6.231,5.132-3.534A.964.964,0,0,0,271.546,221.78Z" transform="translate(-149.013 -121.709)" fill="#dbae58"/>
    <path id="Path_92" data-name="Path 92" d="M34.188,179.083a.962.962,0,0,0-.036-1.725l-5.645-2.639-1.026-6.146a.962.962,0,0,0-1.652-.5l-4.254,4.553-6.163-.923a.944.944,0,0,0-.143-.011.962.962,0,0,0-.842,1.428l3.016,5.453-2.783,5.576a.962.962,0,0,0,1.044,1.374l6.118-1.183,4.443,4.369a.962.962,0,0,0,1.629-.568l.766-6.184Z" transform="translate(-8.506 -95.16)" fill="#dbae58"/>
    <path id="Path_93" data-name="Path 93" d="M148.922,61.052l-.748-1.821-1.925-.416a9.075,9.075,0,0,1-3.822-1.835c-3.1,8.25-5.273,21.011-2.989,40.2a.869.869,0,0,0,1.728-.015c.844-8.9,3.021-23.3,8.577-34.569A9.139,9.139,0,0,1,148.922,61.052Z" transform="translate(-82.345 -29.285)"/>
    <path id="Path_94" data-name="Path 94" d="M164.45,11.035l.629,6.2-4.751,4.033a.962.962,0,0,0,.419,1.674l6.091,1.318,2.368,5.764a.962.962,0,0,0,.824.594l.066,0a.963.963,0,0,0,.831-.478l3.135-5.385,6.214-.47a.962.962,0,0,0,.645-1.6l-4.153-4.646,1.473-6.055a.962.962,0,0,0-1.323-1.108l-5.7,2.514-5.3-3.272a.962.962,0,0,0-1.462.916Z" transform="translate(-95.129 -1.337)" fill="#dbae58"/>
  </g>
</svg>
