<svg xmlns="http://www.w3.org/2000/svg" width="68.285" height="117.059" viewBox="0 0 68.285 117.059">
  <g id="sand-clock" transform="translate(-106.667)">
    <g id="Group_78" data-name="Group 78" transform="translate(106.667)">
      <path id="Path_68" data-name="Path 68" d="M167.635,0H113.983a7.316,7.316,0,1,0,0,14.632h53.652a7.316,7.316,0,1,0,0-14.632Z" transform="translate(-106.667)" fill="#111e4a"/>
      <path id="Path_69" data-name="Path 69" d="M184.091,140.216H130.439A2.439,2.439,0,0,1,128,137.777V117.365a21.948,21.948,0,0,1,7.5-16.52l8.648-7.57a2.439,2.439,0,0,0,0-3.668l-8.648-7.57a21.948,21.948,0,0,1-7.5-16.52V45.106a2.439,2.439,0,0,1,2.439-2.439h53.652a2.439,2.439,0,0,1,2.439,2.439V65.518a21.948,21.948,0,0,1-7.5,16.52l-8.648,7.57a2.439,2.439,0,0,0,0,3.668l8.648,7.57a21.948,21.948,0,0,1,7.5,16.52v20.412A2.439,2.439,0,0,1,184.091,140.216Z" transform="translate(-123.123 -32.912)" fill="#111e4a"/>
    </g>
    <path id="Path_70" data-name="Path 70" d="M149.333,151.794h48.775V133.821a17.071,17.071,0,0,0-5.853-12.847l-8.648-7.57a7.316,7.316,0,0,1,0-11.013l8.648-7.57a17.072,17.072,0,0,0,5.853-12.847V64H149.333V81.973a17.071,17.071,0,0,0,5.853,12.847l8.648,7.57a7.316,7.316,0,0,1,0,11.009l-8.648,7.575a17.071,17.071,0,0,0-5.853,12.847Z" transform="translate(-32.911 -49.368)" fill="#eceff1"/>
    <path id="Path_71" data-name="Path 71" d="M221.065,172.174a2.439,2.439,0,0,0-2.253-1.507H194.424a2.439,2.439,0,0,0-1.727,4.165l12.194,12.194a2.439,2.439,0,0,0,3.448,0l12.194-12.194A2.439,2.439,0,0,0,221.065,172.174Z" transform="translate(-65.809 -131.647)" fill="#dbae58"/>
    <path id="Path_72" data-name="Path 72" d="M167.635,448H113.983a7.316,7.316,0,1,0,0,14.632h53.652a7.316,7.316,0,1,0,0-14.632Z" transform="translate(0 -345.573)" fill="#111e4a"/>
    <path id="Path_73" data-name="Path 73" d="M175.359,331.312a2.439,2.439,0,0,0-3.361.083l-22.666,22.661V357.5h48.775v-5.512Z" transform="translate(-32.911 -255.077)" fill="#dbae58"/>
  </g>
</svg>
