<svg xmlns="http://www.w3.org/2000/svg" width="27.01" height="27.009" viewBox="0 0 27.01 27.009">
  <g id="Group_42" data-name="Group 42" transform="translate(-19.724 -768.945)">
    <g id="Group_34" data-name="Group 34" transform="translate(20.226 769.445)">
      <g id="Group_4" data-name="Group 4" transform="translate(0)">
        <path id="Shape" d="M12.983,26.009A13,13,0,0,1,11.706.065,8.808,8.808,0,0,1,13.007,0h.031a13,13,0,0,1,1.247,25.945A8.806,8.806,0,0,1,12.983,26.009ZM12.9,1.767c-.317,0-.656.018-1.01.053a11.231,11.231,0,0,0,1.092,22.41h.1c.323,0,.671-.018,1.034-.053a11.231,11.231,0,0,0-1.09-22.41H12.9Z" fill="#dbae58" stroke="rgba(0,0,0,0)" stroke-width="1"/>
      </g>
    </g>
    <g id="file" transform="translate(28.178 776.676)">
      <path id="Path_50" data-name="Path 50" d="M8.339.078A.251.251,0,0,0,8.159,0h-4.4A1.014,1.014,0,0,0,2.749,1v.746H1.511A1.02,1.02,0,0,0,.5,2.759v7.784a1.014,1.014,0,0,0,1.012,1H7.335a1.014,1.014,0,0,0,1.012-1V9.8H9.585A1.02,1.02,0,0,0,10.6,8.787V2.494a.258.258,0,0,0-.077-.175ZM8.4.87l1.346,1.38H8.567A.173.173,0,0,1,8.4,2.087Zm-.55,9.674a.514.514,0,0,1-.512.5H1.511a.514.514,0,0,1-.512-.5V2.759a.519.519,0,0,1,.512-.51H2.749V8.787A1.02,1.02,0,0,0,3.761,9.8H7.847ZM9.585,9.3H3.761a.519.519,0,0,1-.512-.51V1A.514.514,0,0,1,3.761.5H7.9V2.087a.673.673,0,0,0,.669.662H10.1V8.787a.519.519,0,0,1-.512.51Zm0,0" transform="translate(-0.5)" fill="#dbae58"/>
      <path id="Path_51" data-name="Path 51" d="M146.119,311H141.43a.25.25,0,1,0,0,.5h4.689a.25.25,0,1,0,0-.5Zm0,0" transform="translate(-137.664 -303.228)" fill="#dbae58"/>
      <path id="Path_52" data-name="Path 52" d="M141.43,267.5h2.807a.25.25,0,0,0,0-.5H141.43a.25.25,0,1,0,0,.5Zm0,0" transform="translate(-137.664 -260.327)" fill="#dbae58"/>
      <path id="Path_53" data-name="Path 53" d="M210.914,88.206a.438.438,0,0,1-.438-.438.25.25,0,1,0-.5,0,.939.939,0,0,0,.663.9v.209a.25.25,0,1,0,.5,0v-.2a.938.938,0,0,0-.225-1.848.438.438,0,1,1,.438-.438.25.25,0,0,0,.5,0,.939.939,0,0,0-.713-.91V85.25a.25.25,0,1,0-.5,0V85.5a.938.938,0,0,0,.275,1.834.438.438,0,1,1,.007.876h-.007Zm0,0" transform="translate(-204.741 -82.875)" fill="#dbae58"/>
    </g>
  </g>
</svg>
