<svg id="up-arrow" xmlns="http://www.w3.org/2000/svg" width="28.25" height="28.25" viewBox="0 0 28.25 28.25">
  <g id="Group_55" data-name="Group 55">
    <g id="Group_54" data-name="Group 54">
      <path id="Path_58" data-name="Path 58" d="M14.125,0A14.125,14.125,0,1,0,28.25,14.125,14.14,14.14,0,0,0,14.125,0Zm0,26.062A11.937,11.937,0,1,1,26.062,14.125,11.951,11.951,0,0,1,14.125,26.062Z" fill="#4d8bff"/>
    </g>
  </g>
  <g id="Group_57" data-name="Group 57" transform="translate(7.625 9.846)">
    <g id="Group_56" data-name="Group 56">
      <path id="Path_59" data-name="Path 59" d="M150.944,184.235l-5.471-5.471a1.094,1.094,0,0,0-1.543,0l-5.471,5.471A1.094,1.094,0,0,0,140,185.778l4.694-4.694,4.7,4.694a1.091,1.091,0,0,0,1.543-1.543Z" transform="translate(-138.197 -178.446)" fill="#4d8bff"/>
    </g>
  </g>
</svg>
