<svg xmlns="http://www.w3.org/2000/svg" width="26" height="26.009" viewBox="0 0 26 26.009">
  <g id="Group_52" data-name="Group 52" transform="translate(-20.226 -505)">
    <g id="Group_45" data-name="Group 45" transform="translate(20.226 505)">
      <g id="Group_14" data-name="Group 14" transform="translate(0)">
        <g id="Group_4" data-name="Group 4" transform="translate(0)">
          <path id="Shape" d="M12.983,26.009A13,13,0,0,1,11.706.065,8.808,8.808,0,0,1,13.007,0h.031a13,13,0,0,1,1.247,25.945A8.806,8.806,0,0,1,12.983,26.009ZM12.9,1.767c-.317,0-.656.018-1.01.053a11.231,11.231,0,0,0,1.092,22.41h.1c.323,0,.671-.018,1.034-.053a11.231,11.231,0,0,0-1.09-22.41H12.9Z" fill="#506172"/>
        </g>
      </g>
      <path id="Path_30" data-name="Path 30" d="M48,392h1.8v6.313H48Zm0,0" transform="translate(-41.313 -379.655)" fill="#506172"/>
      <path id="Path_31" data-name="Path 31" d="M48,360h1.8v1.8H48Zm0,0" transform="translate(-41.313 -351.262)" fill="#506172"/>
      <path id="Path_32" data-name="Path 32" d="M80,408h1.8v4.509H80Zm0,0" transform="translate(-69.706 -393.851)" fill="#506172"/>
      <path id="Path_33" data-name="Path 33" d="M80,376h1.8v1.8H80Zm0,0" transform="translate(-69.706 -365.458)" fill="#506172"/>
      <path id="Path_34" data-name="Path 34" d="M112,392h1.8v6.313H112Zm0,0" transform="translate(-98.098 -379.655)" fill="#506172"/>
      <path id="Path_35" data-name="Path 35" d="M112,360h1.8v1.8H112Zm0,0" transform="translate(-98.098 -351.262)" fill="#506172"/>
      <path id="Path_36" data-name="Path 36" d="M144,368h1.8v9.019H144Zm0,0" transform="translate(-126.491 -358.36)" fill="#506172"/>
    </g>
    <path id="Path_37" data-name="Path 37" d="M144,336h1.8v1.8H144Zm0,0" transform="translate(-106.265 175.032)" fill="#506172"/>
  </g>
</svg>
