<svg xmlns="http://www.w3.org/2000/svg" width="151.451" height="99.212" viewBox="0 0 151.451 99.212">
  <g id="Group_2733" data-name="Group 2733" transform="translate(24.121 4.577) rotate(24)" opacity="0.12">
    <path id="Path_134" data-name="Path 134" d="M-4.845,33.938S-.095,16.5,26.3,6.852C35.954,3.32,59.4-2.127,69.9,5.424c38.593,27.759-1.458,48.5-8.935,28.993-.464-.257-3.7-13.184,1.3-20.691C67.683,5.6,73.526-1.224,88.673.185s43.648,26.732,43.648,26.732" transform="translate(0 0)" fill="none" stroke="#040404" stroke-width="4" stroke-dasharray="4" opacity="0.82"/>
    <g id="Group_57" data-name="Group 57" transform="matrix(-0.656, 0.755, -0.755, -0.656, 148.396, 20.249)">
      <g id="Group_56" data-name="Group 56" transform="translate(0 0)">
        <path id="Path_59" data-name="Path 59" d="M28.519,12.691,16.526.7a2.4,2.4,0,0,0-3.382,0L1.152,12.691c-.77.9-1.618,1.484-.848,2.381.861,1.005,1.646.367,2.651-.494l11.914-11.9L25.5,13.189l1.182,1.36c.761.874,1.718,1.82,2.654.889S29.449,13.627,28.519,12.691Z" transform="translate(0 0)" fill="#040404"/>
      </g>
    </g>
  </g>
</svg>
