<svg xmlns="http://www.w3.org/2000/svg" xmlns:xlink="http://www.w3.org/1999/xlink" width="88" height="88" viewBox="0 0 88 88">
  <defs>
    <filter id="Ellipse_25" x="0" y="0" width="88" height="88" filterUnits="userSpaceOnUse">
      <feOffset dy="3" input="SourceAlpha"/>
      <feGaussianBlur stdDeviation="3" result="blur"/>
      <feFlood flood-opacity="0.161"/>
      <feComposite operator="in" in2="blur"/>
      <feComposite in="SourceGraphic"/>
    </filter>
  </defs>
  <g id="Group_2791" data-name="Group 2791" transform="translate(-1688 2284)">
    <g transform="matrix(1, 0, 0, 1, 1688, -2284)" filter="url(#Ellipse_25)">
      <circle id="Ellipse_25-2" data-name="Ellipse 25" cx="35" cy="35" r="35" transform="translate(9 6)" fill="#fff"/>
    </g>
    <g id="dfbcf146-1045-4f2c-b701-638ae0f3b58f" transform="translate(1686.75 -2259)">
      <path id="Path_139" data-name="Path 139" d="M32.7,32.957a.716.716,0,0,1-.716-.716V26.928a7.907,7.907,0,0,1-5.731-7.584V7.884A7.89,7.89,0,0,1,34.13,0H57.057a7.89,7.89,0,0,1,7.882,7.882V19.342a7.89,7.89,0,0,1-7.882,7.882H38.726L33.2,32.744a.716.716,0,0,1-.506.213Zm.716-2.446L37.922,26a.716.716,0,0,1,.506-.21H57.057a6.455,6.455,0,0,0,6.448-6.448V7.884a6.455,6.455,0,0,0-6.448-6.451H34.13a6.455,6.455,0,0,0-6.448,6.448V19.342a6.465,6.465,0,0,0,5.158,6.319.716.716,0,0,1,.574.7Z" fill="#dbae58" stroke="#dbae58" stroke-width="1"/>
      <path id="Path_140" data-name="Path 140" d="M125.8,91.9h-20.06a.717.717,0,0,0,0,1.433H125.8a.717.717,0,1,0,0-1.433Z" transform="translate(-70.177 -81.869)" fill="#dbae58" stroke="#dbae58" stroke-width="1"/>
      <path id="Path_141" data-name="Path 141" d="M114.339,144.41h-8.6a.717.717,0,0,0,0,1.433h8.6a.717.717,0,0,0,0-1.433Z" transform="translate(-70.177 -128.648)" fill="#dbae58" stroke="#dbae58" stroke-width="1"/>
    </g>
  </g>
</svg>
