<svg xmlns="http://www.w3.org/2000/svg" width="9.963" height="10.94" viewBox="0 0 9.963 10.94">
  <g id="_19981349861536039565" data-name="19981349861536039565" transform="translate(-9.753 -5.474)">
    <path id="Path_2057" data-name="Path 2057" d="M22.414,42.441h-1.2a.185.185,0,0,0-.185.185v1.2a.185.185,0,0,0,.185.185h1.2a.185.185,0,0,0,.185-.185v-1.2A.185.185,0,0,0,22.414,42.441Zm-.185,1.2h-.834v-.834h.834Z" transform="translate(-9.88 -32.406)" fill="#4b4b4b"/>
    <path id="Path_2058" data-name="Path 2058" d="M45.182,42.441h-1.2a.185.185,0,0,0-.185.185v1.2a.185.185,0,0,0,.185.185h1.2a.185.185,0,0,0,.185-.185v-1.2A.185.185,0,0,0,45.182,42.441ZM45,43.645h-.834v-.834H45Z" transform="translate(-29.839 -32.406)" fill="#4b4b4b"/>
    <path id="Path_2059" data-name="Path 2059" d="M67.248,42.441h-1.2a.185.185,0,0,0-.185.185v1.2a.185.185,0,0,0,.185.185h1.2a.185.185,0,0,0,.185-.185v-1.2A.185.185,0,0,0,67.248,42.441Zm-.185,1.2h-.834v-.834h.834Z" transform="translate(-49.183 -32.406)" fill="#4b4b4b"/>
    <path id="Path_2060" data-name="Path 2060" d="M22.414,64.677h-1.2a.185.185,0,0,0-.185.185v1.2a.185.185,0,0,0,.185.185h1.2a.185.185,0,0,0,.185-.185v-1.2A.185.185,0,0,0,22.414,64.677Zm-.185,1.2h-.834v-.834h.834Z" transform="translate(-9.88 -51.898)" fill="#4b4b4b"/>
    <path id="Path_2061" data-name="Path 2061" d="M45.182,64.677h-1.2a.185.185,0,0,0-.185.185v1.2a.185.185,0,0,0,.185.185h1.2a.185.185,0,0,0,.185-.185v-1.2A.185.185,0,0,0,45.182,64.677ZM45,65.881h-.834v-.834H45Z" transform="translate(-29.839 -51.898)" fill="#4b4b4b"/>
    <path id="Path_2062" data-name="Path 2062" d="M67.248,64.677h-1.2a.185.185,0,0,0-.185.185v1.2a.185.185,0,0,0,.185.185h1.2a.185.185,0,0,0,.185-.185v-1.2A.185.185,0,0,0,67.248,64.677Zm-.185,1.2h-.834v-.834h.834Z" transform="translate(-49.183 -51.898)" fill="#4b4b4b"/>
    <path id="Path_2063" data-name="Path 2063" d="M19.531,6.451H18.3V6.205a.731.731,0,0,0-1.462,0v.246H15.464V6.205a.731.731,0,1,0-1.462,0v.246H12.624V6.205a.731.731,0,1,0-1.462,0v.246H9.938a.185.185,0,0,0-.185.185v9.592a.185.185,0,0,0,.185.185h9.593a.185.185,0,0,0,.185-.185V6.636A.185.185,0,0,0,19.531,6.451Zm-2.319-.246a.361.361,0,0,1,.722,0V7.226a.361.361,0,0,1-.722,0Zm-2.479-.361a.361.361,0,0,1,.361.361V7.226a.361.361,0,1,1-.722,0V6.654c0-.006,0-.011,0-.017s0-.012,0-.017V6.205A.361.361,0,0,1,14.733,5.844Zm-3.2.361a.361.361,0,1,1,.722,0V7.226a.361.361,0,0,1-.722,0Zm7.813,9.838H10.123V6.821h1.039v.405a.731.731,0,1,0,1.462,0V6.821H14v.405a.731.731,0,1,0,1.462,0V6.821h1.377v.405a.731.731,0,1,0,1.462,0V6.821h1.042Z" fill="#4b4b4b"/>
  </g>
</svg>
