<svg id="sort_arrows" xmlns="http://www.w3.org/2000/svg" width="8.385" height="10.957" viewBox="0 0 8.385 10.957">
  <g id="noun_Arrow_Down_2022881" data-name="noun_Arrow Down_2022881" transform="translate(0 6.9)">
    <path id="Path_2051" data-name="Path 2051" d="M39.181,45.409h0a.693.693,0,0,1-.439-.146l-3.579-3.012a.469.469,0,0,1,0-.744.714.714,0,0,1,.886,0l3.137,2.643L42.318,41.5a.713.713,0,0,1,.861.017.465.465,0,0,1,.021.723L39.62,45.263A.693.693,0,0,1,39.181,45.409Z" transform="translate(-34.977 -41.352)" fill="#4b4b4b"/>
  </g>
  <g id="noun_Arrow_Down_2022881-2" data-name="noun_Arrow Down_2022881" transform="translate(0 0)">
    <path id="Path_2051-2" data-name="Path 2051" d="M39.181,41.352h0a.693.693,0,0,0-.439.146L35.163,44.51a.469.469,0,0,0,0,.744.714.714,0,0,0,.886,0l3.137-2.643,3.137,2.643a.713.713,0,0,0,.861-.017.465.465,0,0,0,.021-.723L39.62,41.5A.693.693,0,0,0,39.181,41.352Z" transform="translate(-34.977 -41.352)" fill="#4b4b4b"/>
  </g>
</svg>
