<svg id="Layer_1" data-name="Layer 1" xmlns="http://www.w3.org/2000/svg" xmlns:xlink="http://www.w3.org/1999/xlink" viewBox="0 0 1558.47 304.74"><defs><style>.cls-1{fill:url(#linear-gradient);}.cls-2{isolation:isolate;}.cls-3{fill:#20364a;}.cls-4{fill:#fff;}</style><linearGradient id="linear-gradient" x1="-177.56" y1="1249.73" x2="-165.9" y2="1249.73" gradientTransform="matrix(51.82, 0, 0, -26.14, 10155.41, 32825.43)" gradientUnits="userSpaceOnUse"><stop offset="0" stop-color="#272f65"/><stop offset="1" stop-color="#238ccc"/></linearGradient></defs><g id="Group_734" data-name="Group 734"><g id="Group_3" data-name="Group 3"><rect id="Rectangle_2" data-name="Rectangle 2" class="cls-1" x="954.46" width="604.01" height="304.74" rx="98.3"/></g><g id="INSURE" class="cls-2"><g class="cls-2"><path class="cls-3" d="M95,317.79H67.89V128.5H95Z" transform="translate(-67.89 -77.16)"/><path class="cls-3" d="M163.18,169.29l-.32,148.5H135.77V128.5H160.9c4.89,0,9.14,2,11.09,5.55l75.4,129.57V128.5h27.08V317.79H256.85c-4.57,0-8.49-2-10.44-5.55Z" transform="translate(-67.89 -77.16)"/><path class="cls-3" d="M376.63,152.32c-22.19-.32-36.23,9.14-36.23,27.42,0,19.58,26.11,21.54,46,25.45,37.86,7.19,74.74,15,74.74,59.73,0,29.05-33.94,56.46-70.5,56.46-47,0-61.68-8.81-77-18.93l-1.63-1L330,279.93h1c7.5.66,18.6,14.36,59.72,14.36,20.24,0,42.1-10.77,42.1-29.7,0-25.45-29.69-28.39-54.83-33.29C345.3,225.1,312,218.25,312,179.41c0-27.74,26.11-54.18,64.62-54.18,47.32,0,52.54,8.82,67.56,18.93l1.63,1-17.95,21.54h-1C418.4,166.36,418.08,152.32,376.63,152.32Z" transform="translate(-67.89 -77.16)"/><path class="cls-3" d="M609.82,128.5h27.09v126c0,43.73-24.15,66.9-69.84,66.9s-70.17-23.17-70.17-66.9v-126H524V251.21c0,29.38,12.07,43.08,43.08,43.08s42.75-13.38,42.75-43.08Z" transform="translate(-67.89 -77.16)"/><path class="cls-3" d="M805.81,183c0,27.74-20.24,42.1-43.41,48,13.38,13.05,44.38,76.37,49.28,84.53l1.63,2.28H778.72l-.66-1c-9.13-17.29-32-75.06-53.85-78.33a92,92,0,0,0-14-1h-8.49v80.28H674.28V128.5H738.9C774.47,128.5,805.81,141.23,805.81,183Zm-28.4,0c0-20.56-17.62-29.37-42.1-29.37H701.69v58.75H734C759.13,212.38,777.41,205.19,777.41,183Z" transform="translate(-67.89 -77.16)"/><path class="cls-3" d="M871.4,207.81h74.41l-12.72,24.8H871.4V293H987.59l-11.42,24.8H844.31V128.5H985L972.9,153.3H871.4Z" transform="translate(-67.89 -77.16)"/></g></g><g id="NEX" class="cls-2"><g class="cls-2"><path class="cls-4" d="M1112,174.6l-.32,143.19h-26.12V135.26h24.23c4.72,0,8.82,1.89,10.7,5.35l72.7,124.94V135.26h26.12V317.79h-17c-4.41,0-8.18-1.89-10.07-5.35Z" transform="translate(-67.89 -77.16)"/><path class="cls-4" d="M1268.09,211.73h71.75l-12.27,23.92h-59.48v58.22h112l-11,23.92H1242V135.26h135.65L1366,159.18h-97.87Z" transform="translate(-67.89 -77.16)"/><path class="cls-4" d="M1560.77,317.79H1528L1473,242l-55.7,75.84h-31.48l70.81-95-65.46-87.49h32.1l50.36,68.29,49.72-68.29h31.16l-64.2,87.8Z" transform="translate(-67.89 -77.16)"/></g></g></g></svg>