<svg id="icon_roadside-assistance" xmlns="http://www.w3.org/2000/svg" viewBox="-16585 -6904 24 32">
  <defs>
    <style>
      .cls-1 {
        fill: none;
      }

      .cls-2 {
        fill: #5e5e5e;
      }
    </style>
  </defs>
  <rect id="Rectangle_794" data-name="Rectangle 794" class="cls-1" width="24" height="32" transform="translate(-16585 -6904)"/>
  <g id="XMLID_1_" transform="translate(-16585 -6896)">
    <path id="XMLID_23_" class="cls-2" d="M4.5,17a2.5,2.5,0,0,1,0-5,2.5,2.5,0,0,1,0,5Zm0-4a1.5,1.5,0,0,0,0,3,1.5,1.5,0,0,0,0-3Z"/>
    <path id="XMLID_19_" class="cls-2" d="M19.5,17A2.5,2.5,0,1,1,22,14.5,2.476,2.476,0,0,1,19.5,17Zm0-4A1.5,1.5,0,1,0,21,14.5,1.538,1.538,0,0,0,19.5,13Z"/>
    <path id="XMLID_17_" class="cls-2" d="M17.5,10h-1a.5.5,0,0,1,0-1h1a.5.5,0,0,1,0,1Z"/>
    <path id="XMLID_15_" class="cls-2" d="M8.5,15a.6.6,0,0,1-.4-.1.85.85,0,0,1,0-.8.483.483,0,0,1,.7,0,.758.758,0,0,1,.2.4c0,.1-.1.3-.2.3C8.7,15,8.6,15,8.5,15Z"/>
    <path id="XMLID_13_" class="cls-2" d="M17.5,15H6.5a.5.5,0,0,1,0-1h11a.5.5,0,0,1,0,1Z"/>
    <path id="XMLID_11_" class="cls-2" d="M20.5,8h-4a.472.472,0,0,1-.5-.5v-4a.5.5,0,0,1,1,0V7h3.5a.5.5,0,0,1,0,1Z"/>
    <path id="XMLID_9_" class="cls-2" d="M21.5,15a.5.5,0,0,1,0-1A1.538,1.538,0,0,0,23,12.5V8.3l-.7-.4c-.2,0-.3-.2-.3-.4v-4c0-.2.1-.4.3-.4l.7-.4v-1A3.984,3.984,0,0,0,21.5,1H13v9.5a.472.472,0,0,1-.5.5H1.9l-.8,3H2.5a.5.5,0,0,1,0,1H.5a.52.52,0,0,1-.4-.2.6.6,0,0,1-.1-.4l1-4a.664.664,0,0,1,.5-.4H12V.5a.472.472,0,0,1,.5-.5h9a5.906,5.906,0,0,1,2.4,1.1c0,.1.1.3.1.4V3c0,.2-.1.4-.3.4l-.7.4V7.2l.7.4c.2,0,.3.2.3.4v4.5A2.476,2.476,0,0,1,21.5,15Z"/>
    <path id="XMLID_5_" class="cls-2" d="M7.5,11a.51.51,0,0,1-.5-.4L4,.6c0-.2,0-.3.1-.4A.52.52,0,0,1,4.5,0H6.4A2.245,2.245,0,0,1,8.5,1.2l4.4,9.1a.663.663,0,0,1-.2.7.663.663,0,0,1-.7-.2L7.6,1.7A1.387,1.387,0,0,0,6.4,1H5.2L8,10.4a.486.486,0,0,1-.3.6Z"/>
    <path id="XMLID_3_" class="cls-2" d="M3.5,7A1.538,1.538,0,0,1,2,5.5.472.472,0,0,1,2.5,5a.472.472,0,0,1,.5.5.472.472,0,0,0,.5.5A.472.472,0,0,0,4,5.5V.5A.472.472,0,0,1,4.5,0,.472.472,0,0,1,5,.5v5A1.538,1.538,0,0,1,3.5,7Z"/>
  </g>
</svg>
