<?xml version="1.0" encoding="UTF-8"?>
<svg width="130px" height="39px" viewBox="0 0 130 39" version="1.1" xmlns="http://www.w3.org/2000/svg" xmlns:xlink="http://www.w3.org/1999/xlink">
    <!-- Generator: Sketch 41.2 (35397) - http://www.bohemiancoding.com/sketch -->
    <title>68321</title>
    <desc>Created with Sketch.</desc>
    <defs>
        <path d="M128.356524,23.7760714 C126.906816,18.8107937 115.435207,14.4441865 113.154638,13.6185317 C110.707896,12.7304563 104.42487,10.6024802 98.3911019,9.81938492 C87.79906,4.68670635 75.9206164,1.10035714 75.6942785,1.03509921 C75.5051861,0.995376984 70.8065253,0.0193452381 57.6903858,0.0193452381 C48.9720781,0.0193452381 40.4629181,1.72172619 32.956521,3.21982143 C29.0256902,4.00575397 25.3154673,4.75196429 22.0206747,5.15486111 C12.5545923,6.31248016 5.42638015,6.42029762 5.35475422,6.42029762 C4.79034193,6.42880952 4.28323037,6.77212302 4.07408267,7.29418651 C3.90504548,7.70559524 1.42108547e-14,17.4432143 1.42108547e-14,21.8949405 C1.42108547e-14,26.7126786 6.79013778,31.5559524 7.56369778,32.0950397 C7.79863081,32.2596032 8.07940444,32.3447222 8.36590815,32.3447222 L11.1936997,32.3447222 C13.2937719,35.6672024 17.0011298,37.8973214 21.2413846,37.8973214 C25.4845044,37.8973214 29.1889973,35.672877 31.2919345,32.3447222 L89.5238123,32.3447222 C91.5436634,35.6558532 95.1793954,37.8973214 99.3652145,37.8973214 C103.551034,37.8973214 107.183901,35.6558532 109.209482,32.3447222 L127.127423,32.3447222 C127.737676,32.3447222 128.276303,31.9560119 128.465396,31.3800397 C128.502641,31.2381746 129.55411,27.8788095 128.356524,23.7760714 Z M93.8872637,10.7897421 C91.4462521,11.297619 88.7645775,11.6125595 85.8250495,11.7600992 L85.8995404,11.6239087 C86.094363,11.269246 86.1316084,10.8408135 85.9854916,10.4577778 C85.8393747,10.0719048 85.5270856,9.7739881 85.1403056,9.63496032 L80.9201061,8.15672619 C80.5333261,8.02053571 80.1178957,8.06025794 79.7654961,8.25319444 C79.4130966,8.44896825 79.1638384,8.78660714 79.0807523,9.18099206 L78.5306652,11.8083333 C71.3823978,11.5756746 63.4405151,10.6308532 54.6591766,9.4306746 L58.5069213,2.8027381 C70.4827761,2.84246032 74.9665591,3.72486111 74.9980745,3.72486111 C75.115541,3.75890873 84.4784821,6.58769841 93.8872637,10.7897421 Z M33.5123382,5.94363095 C40.1592241,4.61577381 47.6169156,3.19144841 55.2006686,2.90771825 L51.6566178,9.01642857 C50.0865775,8.79795635 48.4936169,8.57097222 46.8634108,8.3439881 C41.9727926,7.65452381 36.9818981,6.94803571 31.8047761,6.28410714 C32.3720535,6.17061508 32.9393308,6.05712302 33.5123382,5.94363095 Z M21.2413846,35.1196032 C16.2332999,35.1196032 12.1534871,31.0792857 12.1534871,26.1196825 C12.1534871,21.1544048 16.2332999,17.1225992 21.2413846,17.1225992 C26.2551994,17.1225992 30.3321471,21.1544048 30.3321471,26.1196825 C30.3321471,31.0792857 26.2551994,35.1196032 21.2413846,35.1196032 Z M99.3652145,35.1196032 C94.5519523,35.1196032 90.6411767,31.2438492 90.6411767,26.4800198 C90.6411767,21.7133532 94.5519523,17.8404365 99.3652145,17.8404365 C104.181342,17.8404365 108.089252,21.7161905 108.089252,26.4800198 C108.089252,31.2438492 104.169882,35.1196032 99.3652145,35.1196032 Z" id="path-1"></path>
        <mask id="mask-2" maskContentUnits="userSpaceOnUse" maskUnits="objectBoundingBox" x="0" y="0" width="128.927737" height="37.8779762" fill="white">
            <use xlink:href="#path-1"></use>
        </mask>
    </defs>
    <g id="Symbols" stroke="none" stroke-width="1" fill="none" fill-rule="evenodd" opacity="0.319999993">
        <g id="Icons-and-illustrations" transform="translate(-74.000000, -103.000000)" stroke="#979797">
            <g id="Check-icon" transform="translate(35.000000, 39.000000)">
                <g id="68321" transform="translate(103.726667, 83.321429) scale(-1, 1) translate(-103.726667, -83.321429) translate(39.226667, 64.321429)">
                    <g id="Capa_1">
                        <g id="Group">
                            <use id="Shape" mask="url(#mask-2)" stroke-width="6" xlink:href="#path-1"></use>
                            <ellipse id="Oval" stroke-width="2" cx="21.2413846" cy="26.1225198" rx="5.78737481" ry="5.73134921"></ellipse>
                            <ellipse id="Oval" stroke-width="2" cx="99.3652145" cy="26.4800198" rx="5.78737481" ry="5.73134921"></ellipse>
                        </g>
                    </g>
                </g>
            </g>
        </g>
    </g>
</svg>