<?xml version="1.0" encoding="UTF-8"?>
<svg width="30px" height="29px" viewBox="0 0 30 29" version="1.1" xmlns="http://www.w3.org/2000/svg" xmlns:xlink="http://www.w3.org/1999/xlink">
    <!-- Generator: Sketch 47.1 (45422) - http://www.bohemiancoding.com/sketch -->
    <title>Group</title>
    <desc>Created with Sketch.</desc>
    <defs>
        <path d="M28.9876347,10.5833257 C28.5708147,8.87409371 26.6390833,7.75984624 25.5619335,6.31185981 C24.5235683,4.91509776 24.0662399,2.77758297 22.4591481,1.81611898 C20.8522307,0.854877459 18.6720977,1.41445108 16.9163813,1.13973115 C15.0962764,0.854432231 13.2031539,-0.31950271 11.4371372,0.0832787374 C9.66991233,0.48683973 8.51899786,2.35575932 7.02267074,3.39818068 C5.57933842,4.40374242 3.37014864,4.84538769 2.37666356,6.40050042 C1.38317848,7.95539099 1.96208808,10.0655111 1.67766799,11.7640536 C1.38248785,13.5256232 0.169315203,15.3570159 0.586307358,17.0668051 C1.00306944,18.7758137 2.93416844,19.8902839 4.01166167,21.3379371 C5.05071875,22.7343635 5.50747068,24.8722136 7.11438933,25.8335668 C8.7214811,26.7949176 10.9015558,26.2345649 12.6572722,26.5101765 C14.4770321,26.795697 16.3707292,27.969409 18.1370344,27.5664054 C19.9032243,27.1631784 21.0548294,25.2944813 22.551213,24.2515047 C23.9940855,23.2459417 26.2040792,22.8042982 27.1975649,21.2494059 C28.1910506,19.6944042 27.6113938,17.5842847 27.8962151,15.8856317 C28.1912814,14.124618 29.4041084,12.2926693 28.9876347,10.5833257 Z" id="path-1"></path>
    </defs>
    <g id="Page-1" stroke="none" stroke-width="1" fill="none" fill-rule="evenodd">
        <g id="Group" transform="translate(0.000000, 0.350348)">
            <mask id="mask-2" fill="white">
                <use xlink:href="#path-1"></use>
            </mask>
            <use id="Mask" fill="#F3BC55" fill-rule="nonzero" transform="translate(14.786884, 13.824889) rotate(13.000000) translate(-14.786884, -13.824889) " xlink:href="#path-1"></use>
            <path d="M5.87776922,11.1361349 L7.27328452,11.1361349 L8.84439445,14.0272321 L9.43587113,15.3121642 L9.47283842,15.3121642 C9.44203219,15.0028272 9.40660556,14.6578026 9.36655746,14.27708 C9.32650936,13.8963575 9.30648561,13.5334868 9.30648561,13.188457 L9.30648561,11.1361349 L10.6003408,11.1361349 L10.6003408,16.9540219 L9.20482555,16.9540219 L7.63371562,14.0540015 L7.04223894,12.7869157 L7.00527164,12.7869157 C7.03607788,13.1081504 7.07150451,13.453175 7.11155261,13.8219999 C7.15160071,14.1908249 7.17162446,14.5477469 7.17162446,14.8927767 L7.17162446,16.9540219 L5.87776922,16.9540219 L5.87776922,11.1361349 Z M12.6612674,14.080771 C12.6612674,13.598919 12.7382818,13.1691254 12.892313,12.7913773 C13.0463441,12.4136292 13.2542831,12.0938865 13.5161361,11.8321398 C13.777989,11.570393 14.0829661,11.3711116 14.4310765,11.2342894 C14.779187,11.0974673 15.1473159,11.0290572 15.5354744,11.0290572 C15.9113104,11.0290572 16.2517142,11.1049031 16.5566959,11.2565973 C16.8616776,11.4082914 17.1158252,11.5852652 17.3191463,11.7875241 L16.5705586,12.5995298 C16.4165274,12.4627076 16.2609583,12.355631 16.1038465,12.2782968 C15.9467348,12.2009625 15.7634404,12.1622959 15.5539581,12.1622959 C15.3444757,12.1622959 15.1488591,12.205424 14.9671023,12.2916815 C14.7853455,12.3779389 14.6266958,12.5013745 14.4911484,12.6619918 C14.355601,12.8226091 14.2493211,13.0189162 14.1723055,13.250919 C14.0952899,13.4829218 14.0567827,13.7446646 14.0567827,14.0361553 C14.0567827,14.636983 14.1892475,15.1024688 14.4541811,15.4326266 C14.7191147,15.7627844 15.073381,15.9278609 15.5169908,15.9278609 C15.7634406,15.9278609 15.979081,15.8802713 16.1639184,15.7850906 C16.3487558,15.68991 16.5151069,15.5649873 16.6629768,15.4103188 L17.4115645,16.2044782 C17.1589534,16.4900201 16.8709195,16.7041733 16.547454,16.8469442 C16.2239886,16.9897152 15.8743431,17.0610996 15.4985071,17.0610996 C15.1103486,17.0610996 14.74376,16.9971511 14.3987302,16.8692521 C14.0537004,16.7413531 13.7518038,16.5524819 13.4930315,16.3026327 C13.2342592,16.0527836 13.0309411,15.741964 12.8830712,15.3701646 C12.7352013,14.9983653 12.6612674,14.5685717 12.6612674,14.080771 Z M19.2506873,11.1361349 L20.9511828,11.1361349 C21.4132762,11.1361349 21.8291541,11.1926475 22.1988289,11.3056745 C22.5685037,11.4187015 22.8858031,11.592701 23.1507367,11.8276782 C23.4156703,12.0626554 23.6189883,12.3615776 23.760697,12.7244537 C23.9024057,13.0873299 23.9732589,13.5186107 23.9732589,14.018309 C23.9732589,14.5180073 23.9024057,14.9522624 23.760697,15.3210874 C23.6189883,15.6899123 23.4187508,15.9947832 23.1599785,16.2357092 C22.9012062,16.4766351 22.5916082,16.6565833 22.2311753,16.7755591 C21.8707424,16.8945349 21.4687271,16.9540219 21.0251174,16.9540219 L19.2506873,16.9540219 L19.2506873,11.1361349 Z M20.8680064,15.8921683 C21.1267787,15.8921683 21.3609026,15.8594504 21.5703849,15.7940138 C21.7798673,15.7285771 21.9585408,15.6229876 22.1064107,15.4772423 C22.2542806,15.331497 22.3698022,15.1396514 22.452979,14.9016998 C22.5361559,14.6637482 22.5777436,14.3692876 22.5777436,14.018309 C22.5777436,13.6732792 22.5361559,13.3832801 22.452979,13.1483029 C22.3698022,12.9133257 22.2542806,12.7259416 22.1064107,12.5861451 C21.9585408,12.4463485 21.7798673,12.3467078 21.5703849,12.2872199 C21.3609026,12.227732 21.1267787,12.1979885 20.8680064,12.1979885 L20.6092353,12.1979885 L20.6092353,15.8921683 L20.8680064,15.8921683 Z" id="NCD" fill="#FFFFFF" mask="url(#mask-2)"></path>
        </g>
    </g>
</svg>