<?xml version="1.0" encoding="UTF-8"?>
<svg width="30px" height="30px" viewBox="0 0 30 30" version="1.1" xmlns="http://www.w3.org/2000/svg" xmlns:xlink="http://www.w3.org/1999/xlink">
    <!-- Generator: Sketch 41.2 (35397) - http://www.bohemiancoding.com/sketch -->
    <title>Shape</title>
    <desc>Created with Sketch.</desc>
    <defs>
        <path d="M129.46201,260.61742 C129.510747,260.990944 129.396961,261.315714 129.121131,261.591728 L125.882781,264.806826 C125.73669,264.96921 125.546,265.107357 125.310631,265.220907 C125.075263,265.334616 124.843992,265.407689 124.616819,265.440126 C124.600586,265.440126 124.55177,265.444305 124.470569,265.452424 C124.389526,265.460504 124.284016,265.464643 124.154158,265.464643 C123.845664,265.464643 123.34648,265.411868 122.656606,265.306278 C121.966732,265.200688 121.12269,264.940833 120.124482,264.526831 C119.126034,264.11275 117.993869,263.491549 116.727787,262.663467 C115.461705,261.835424 114.114382,260.698652 112.685937,259.253388 C111.549674,258.132934 110.608199,257.061195 109.861512,256.038211 C109.114824,255.015148 108.514228,254.069257 108.059723,253.200499 C107.605178,252.331741 107.264299,251.544175 107.037046,250.837802 C106.809794,250.131428 106.655587,249.522486 106.574425,249.010974 C106.493263,248.499462 106.460799,248.09756 106.477031,247.805267 C106.493263,247.512975 106.50138,247.35059 106.50138,247.318113 C106.533844,247.090775 106.60689,246.859377 106.720516,246.623919 C106.834142,246.388461 106.972117,246.197659 107.13444,246.051513 L110.37279,242.811938 C110.600043,242.584599 110.85976,242.47093 111.151942,242.47093 C111.362962,242.47093 111.549634,242.531824 111.711957,242.653613 C111.874281,242.775401 112.012256,242.925607 112.125882,243.10423 L114.731171,248.048844 C114.877262,248.30866 114.917843,248.592833 114.852913,248.901364 C114.787984,249.209895 114.650009,249.469711 114.438989,249.680811 L113.245913,250.874338 C113.213448,250.906815 113.185041,250.95959 113.160693,251.032663 C113.136344,251.105736 113.12417,251.166631 113.12417,251.215346 C113.189099,251.556354 113.33519,251.946077 113.562443,252.384516 C113.757231,252.774239 114.057529,253.249214 114.463337,253.809442 C114.869146,254.369669 115.445393,255.015108 116.19208,255.745839 C116.922535,256.492888 117.571828,257.073334 118.13996,257.487495 C118.707972,257.901416 119.182927,258.206007 119.564387,258.400869 C119.945846,258.59573 120.238028,258.713459 120.440893,258.753936 L120.745169,258.81487 C120.777634,258.81487 120.830508,258.802651 120.903474,258.778334 C120.97652,258.753936 121.029275,258.725559 121.061779,258.693042 L122.449604,257.280295 C122.741945,257.020519 123.082665,256.890612 123.47228,256.890612 C123.74831,256.890612 123.967327,256.939287 124.12965,257.036758 L124.153959,257.036758 L128.853178,259.813536 C129.194177,260.024795 129.397041,260.29265 129.46201,260.61742 Z" id="path-1"></path>
        <mask id="mask-2" maskContentUnits="userSpaceOnUse" maskUnits="objectBoundingBox" x="-3" y="-3" width="29" height="28.9937127">
            <rect x="103.472973" y="239.47093" width="29" height="28.9937127" fill="white"></rect>
            <use xlink:href="#path-1" fill="black"></use>
        </mask>
    </defs>
    <g id="Final-UI-designs" stroke="none" stroke-width="1" fill="none" fill-rule="evenodd">
        <g id="UI---Mobile-form---Thank-you-screen" transform="translate(-103.000000, -557.000000)" stroke-width="6" stroke="#009FAB">
            <g id="Car-year" transform="translate(0.000000, 318.000000)">
                <g id="Group">
                    <use id="Shape" mask="url(#mask-2)" xlink:href="#path-1"></use>
                </g>
            </g>
        </g>
    </g>
</svg>