<svg xmlns="http://www.w3.org/2000/svg" width="26" height="26.009" viewBox="0 0 26 26.009">
  <g id="Group_47" data-name="Group 47" transform="translate(-20.326 -329)">
    <g id="Group_6" data-name="Group 6" transform="translate(20.326 329)">
      <g id="Group_4" data-name="Group 4" transform="translate(0 0)">
        <path id="Shape" d="M12.983,26.009A13,13,0,0,1,11.706.065,8.808,8.808,0,0,1,13.007,0h.031a13,13,0,0,1,1.247,25.945A8.806,8.806,0,0,1,12.983,26.009ZM12.9,1.767c-.317,0-.656.018-1.01.053a11.231,11.231,0,0,0,1.092,22.41h.1c.323,0,.671-.018,1.034-.053a11.231,11.231,0,0,0-1.09-22.41H12.9Z" transform="translate(0 0)" fill="#dbae58"/>
      </g>
      <g id="google-docs" transform="translate(8.357 6.909)">
        <path id="Path_1" data-name="Path 1" d="M70.181,2.962,67.324.1a.358.358,0,0,0-.253-.1h-5A1.073,1.073,0,0,0,61,1.071V11.119a1.073,1.073,0,0,0,1.071,1.071h7.143a1.073,1.073,0,0,0,1.071-1.071V3.214A.36.36,0,0,0,70.181,2.962ZM67.429,1.219l1.638,1.638H67.786a.358.358,0,0,1-.357-.357Zm1.786,10.257H62.071a.358.358,0,0,1-.357-.357V1.071a.358.358,0,0,1,.357-.357h4.643V2.5a1.073,1.073,0,0,0,1.071,1.071h1.786v7.548A.358.358,0,0,1,69.215,11.477Z" transform="translate(-61 0)" fill="#dbae58"/>
        <path id="Path_2" data-name="Path 2" d="M155.643,212h-4.286a.357.357,0,1,0,0,.714h4.286a.357.357,0,1,0,0-.714Z" transform="translate(-148.857 -206.952)" fill="#dbae58"/>
        <path id="Path_3" data-name="Path 3" d="M155.643,272h-4.286a.357.357,0,1,0,0,.714h4.286a.357.357,0,1,0,0-.714Z" transform="translate(-148.857 -265.524)" fill="#dbae58"/>
        <path id="Path_4" data-name="Path 4" d="M155.643,332h-4.286a.357.357,0,1,0,0,.714h4.286a.357.357,0,1,0,0-.714Z" transform="translate(-148.857 -324.095)" fill="#dbae58"/>
        <path id="Path_5" data-name="Path 5" d="M154.214,392h-2.857a.357.357,0,1,0,0,.714h2.857a.357.357,0,0,0,0-.714Z" transform="translate(-148.857 -382.666)" fill="#dbae58"/>
      </g>
    </g>
  </g>
</svg>
